<mxfile host="app.diagrams.net" modified="2024-01-01T15:56:05.777Z" agent="Mozilla/5.0 (Windows NT 10.0; Win64; x64) AppleWebKit/537.36 (KHTML, like Gecko) Chrome/120.0.0.0 Safari/537.36 Edg/120.0.0.0" etag="YjNEzCGT38Rcn8ccNVVP" version="22.1.16" type="device">
  <diagram name="Page-1" id="0LPMzaNV7juOi2uxtHpv">
    <mxGraphModel dx="14390" dy="20313" grid="1" gridSize="10" guides="1" tooltips="1" connect="1" arrows="1" fold="1" page="1" pageScale="1" pageWidth="12000" pageHeight="19000" math="0" shadow="0">
      <root>
        <mxCell id="0" />
        <mxCell id="1" parent="0" />
        <mxCell id="v2r1mN7sK_RYW9vqefhN-8" style="edgeStyle=orthogonalEdgeStyle;rounded=0;orthogonalLoop=1;jettySize=auto;html=1;entryX=0.5;entryY=0;entryDx=0;entryDy=0;strokeColor=none;" edge="1" parent="1" source="v2r1mN7sK_RYW9vqefhN-3">
          <mxGeometry relative="1" as="geometry">
            <mxPoint x="-80" y="-610" as="targetPoint" />
          </mxGeometry>
        </mxCell>
        <mxCell id="v2r1mN7sK_RYW9vqefhN-21" style="edgeStyle=orthogonalEdgeStyle;rounded=0;orthogonalLoop=1;jettySize=auto;html=1;exitX=0.5;exitY=0;exitDx=0;exitDy=0;startArrow=classic;startFill=1;strokeWidth=3;" edge="1" parent="1" source="v2r1mN7sK_RYW9vqefhN-17">
          <mxGeometry relative="1" as="geometry">
            <mxPoint x="135" y="180" as="targetPoint" />
          </mxGeometry>
        </mxCell>
        <mxCell id="v2r1mN7sK_RYW9vqefhN-17" value="" style="swimlane;startSize=0;" vertex="1" parent="1">
          <mxGeometry x="20" y="380" width="230" height="430" as="geometry" />
        </mxCell>
        <mxCell id="v2r1mN7sK_RYW9vqefhN-1" value="" style="shape=image;html=1;verticalAlign=top;verticalLabelPosition=bottom;labelBackgroundColor=#ffffff;imageAspect=0;aspect=fixed;image=https://cdn1.iconfinder.com/data/icons/seo-and-web-development-6/32/Web_website_favorite_site_star-128.png" vertex="1" parent="v2r1mN7sK_RYW9vqefhN-17">
          <mxGeometry x="70" y="40" width="98" height="98" as="geometry" />
        </mxCell>
        <mxCell id="v2r1mN7sK_RYW9vqefhN-3" value="" style="sketch=0;outlineConnect=0;fontColor=#232F3E;gradientColor=none;fillColor=#232F3D;strokeColor=none;dashed=0;verticalLabelPosition=bottom;verticalAlign=top;align=center;html=1;fontSize=12;fontStyle=0;aspect=fixed;pointerEvents=1;shape=mxgraph.aws4.mobile_client;" vertex="1" parent="v2r1mN7sK_RYW9vqefhN-17">
          <mxGeometry x="97.97999999999999" y="160" width="42.05" height="80" as="geometry" />
        </mxCell>
        <mxCell id="v2r1mN7sK_RYW9vqefhN-15" value="desktop" style="sketch=0;outlineConnect=0;gradientColor=none;fontColor=#545B64;strokeColor=none;fillColor=#879196;dashed=0;verticalLabelPosition=bottom;verticalAlign=top;align=center;html=1;fontSize=12;fontStyle=0;aspect=fixed;shape=mxgraph.aws4.illustration_desktop;pointerEvents=1" vertex="1" parent="v2r1mN7sK_RYW9vqefhN-17">
          <mxGeometry x="70" y="270" width="100" height="91" as="geometry" />
        </mxCell>
        <mxCell id="v2r1mN7sK_RYW9vqefhN-19" value="" style="swimlane;whiteSpace=wrap;html=1;" vertex="1" parent="1">
          <mxGeometry y="80" width="620" height="100" as="geometry" />
        </mxCell>
        <mxCell id="v2r1mN7sK_RYW9vqefhN-20" value="Authentication Authorization Layer or Service" style="text;html=1;strokeColor=none;fillColor=none;align=center;verticalAlign=middle;whiteSpace=wrap;rounded=0;fontSize=20;fontColor=#000000;" vertex="1" parent="v2r1mN7sK_RYW9vqefhN-19">
          <mxGeometry x="40" y="40" width="442" height="30" as="geometry" />
        </mxCell>
        <mxCell id="v2r1mN7sK_RYW9vqefhN-22" value="" style="swimlane;startSize=0;" vertex="1" parent="1">
          <mxGeometry x="130" y="1100" width="520" height="100" as="geometry" />
        </mxCell>
        <mxCell id="v2r1mN7sK_RYW9vqefhN-23" value="Intrusion Detection Mechanism&lt;br&gt;&lt;br&gt;Network traffic filter, etc" style="text;html=1;strokeColor=none;fillColor=none;align=center;verticalAlign=middle;whiteSpace=wrap;rounded=0;fontSize=20;" vertex="1" parent="v2r1mN7sK_RYW9vqefhN-22">
          <mxGeometry x="82" y="35" width="340" height="30" as="geometry" />
        </mxCell>
        <mxCell id="v2r1mN7sK_RYW9vqefhN-24" value="" style="swimlane;whiteSpace=wrap;html=1;" vertex="1" parent="1">
          <mxGeometry x="340" y="550" width="550" height="90" as="geometry" />
        </mxCell>
        <mxCell id="v2r1mN7sK_RYW9vqefhN-25" value="Message Queuing, Event Bus , RabbitMQ, Kafka, etc" style="text;html=1;strokeColor=none;fillColor=none;align=left;verticalAlign=middle;whiteSpace=wrap;rounded=0;fontSize=19;" vertex="1" parent="v2r1mN7sK_RYW9vqefhN-24">
          <mxGeometry x="48" y="40" width="642" height="30" as="geometry" />
        </mxCell>
        <mxCell id="v2r1mN7sK_RYW9vqefhN-26" value="" style="swimlane;whiteSpace=wrap;html=1;" vertex="1" parent="1">
          <mxGeometry x="1020" y="450" width="660" height="130" as="geometry" />
        </mxCell>
        <mxCell id="v2r1mN7sK_RYW9vqefhN-27" value="&lt;font style=&quot;font-size: 21px;&quot;&gt;Server-Side Stuff, Apis, Servers, Cloud Native services, serverless, console jobs&lt;br&gt;&lt;/font&gt;" style="text;html=1;strokeColor=none;fillColor=none;align=center;verticalAlign=middle;whiteSpace=wrap;rounded=0;" vertex="1" parent="v2r1mN7sK_RYW9vqefhN-26">
          <mxGeometry x="60" y="40" width="590" height="60" as="geometry" />
        </mxCell>
        <mxCell id="v2r1mN7sK_RYW9vqefhN-28" value="" style="swimlane;whiteSpace=wrap;html=1;" vertex="1" parent="1">
          <mxGeometry x="1330" y="980" width="350" height="220" as="geometry" />
        </mxCell>
        <mxCell id="v2r1mN7sK_RYW9vqefhN-30" value="&lt;span style=&quot;font-size: 25px;&quot;&gt;Persistence and Storage&lt;br&gt;&lt;/span&gt;" style="text;html=1;strokeColor=none;fillColor=none;align=left;verticalAlign=top;whiteSpace=wrap;rounded=0;" vertex="1" parent="v2r1mN7sK_RYW9vqefhN-28">
          <mxGeometry x="10" y="45" width="330" height="55" as="geometry" />
        </mxCell>
      </root>
    </mxGraphModel>
  </diagram>
</mxfile>
